<svg width="1920" height="100" viewBox="0 0 1920 100" fill="none" xmlns="http://www.w3.org/2000/svg">
<rect x="0.5" y="0.5" width="1919" height="99" fill="#0C5C1C" fill-opacity="0.780392" stroke="black"/>
<path d="M818.624 55.328C818.624 54.96 818.656 54.528 818.72 54.032C818.784 53.536 818.904 52.976 819.08 52.352C819.256 51.712 819.52 51 819.872 50.216L822.824 51.248C822.648 51.744 822.496 52.2 822.368 52.616C822.24 53.016 822.144 53.392 822.08 53.744C822.016 54.08 821.984 54.416 821.984 54.752C821.984 55.232 822.088 55.68 822.296 56.096C822.504 56.512 822.816 56.872 823.232 57.176C823.648 57.496 824.16 57.744 824.768 57.92C825.392 58.096 826.112 58.184 826.928 58.184C827.856 58.184 828.672 58.096 829.376 57.92C830.096 57.76 830.696 57.544 831.176 57.272C831.672 57.016 832.048 56.744 832.304 56.456C832.56 56.168 832.688 55.904 832.688 55.664C832.688 55.472 832.552 55.304 832.28 55.16C832.024 55.016 831.68 54.872 831.248 54.728C830.832 54.568 830.384 54.392 829.904 54.2C829.44 54.008 828.992 53.768 828.56 53.48C828.144 53.192 827.8 52.84 827.528 52.424C827.272 52.008 827.144 51.504 827.144 50.912C827.144 50.304 827.304 49.64 827.624 48.92C827.944 48.184 828.4 47.488 828.992 46.832C829.584 46.16 830.288 45.616 831.104 45.2C831.936 44.768 832.848 44.552 833.84 44.552C834.544 44.552 835.184 44.664 835.76 44.888C836.352 45.112 836.848 45.368 837.248 45.656L836 48.464C835.664 48.24 835.304 48.072 834.92 47.96C834.536 47.832 834.168 47.768 833.816 47.768C833.368 47.768 832.936 47.856 832.52 48.032C832.12 48.208 831.76 48.44 831.44 48.728C831.136 49 830.896 49.296 830.72 49.616C830.544 49.936 830.456 50.24 830.456 50.528C830.456 50.816 830.592 51.072 830.864 51.296C831.152 51.504 831.52 51.704 831.968 51.896C832.416 52.072 832.888 52.256 833.384 52.448C833.88 52.64 834.352 52.856 834.8 53.096C835.248 53.336 835.608 53.624 835.88 53.96C836.168 54.296 836.312 54.704 836.312 55.184C836.312 55.872 836.096 56.584 835.664 57.32C835.248 58.072 834.624 58.768 833.792 59.408C832.96 60.048 831.936 60.56 830.72 60.944C829.52 61.344 828.128 61.544 826.544 61.544C825.392 61.544 824.336 61.408 823.376 61.136C822.416 60.88 821.576 60.488 820.856 59.96C820.152 59.448 819.6 58.8 819.2 58.016C818.816 57.248 818.624 56.352 818.624 55.328ZM839.631 56L839.127 38.432H842.487L842.991 56H839.631ZM863.172 56.12C862.036 56.12 861.052 55.976 860.22 55.688C859.404 55.384 858.772 54.904 858.324 54.248C857.876 53.576 857.62 52.68 857.556 51.56L857.124 41.888H860.508L860.916 50.384C860.948 51.04 861.052 51.544 861.228 51.896C861.42 52.232 861.692 52.464 862.044 52.592C862.396 52.704 862.852 52.76 863.412 52.76C864.02 52.76 864.452 52.92 864.708 53.24C864.964 53.544 865.092 53.928 865.092 54.392C865.092 54.888 864.924 55.304 864.588 55.64C864.268 55.96 863.796 56.12 863.172 56.12ZM858.78 53.888C857.708 54.128 856.676 54.24 855.684 54.224C854.692 54.192 853.804 54.016 853.02 53.696C852.236 53.36 851.612 52.88 851.148 52.256C850.7 51.632 850.476 50.84 850.476 49.88C850.476 49.032 850.66 48.264 851.028 47.576C851.412 46.872 851.94 46.256 852.612 45.728C853.3 45.2 854.1 44.752 855.012 44.384C855.924 44.016 856.916 43.736 857.988 43.544L858.324 46.952C857.636 46.984 857.012 47.08 856.452 47.24C855.908 47.384 855.436 47.576 855.036 47.816C854.652 48.056 854.356 48.328 854.148 48.632C853.94 48.92 853.836 49.232 853.836 49.568C853.836 49.84 853.932 50.064 854.124 50.24C854.316 50.416 854.572 50.56 854.892 50.672C855.212 50.768 855.58 50.824 855.996 50.84C856.412 50.856 856.836 50.832 857.268 50.768C857.716 50.704 858.156 50.6 858.588 50.456L858.78 53.888ZM863.164 56.12L863.404 52.784C864.732 52.784 865.796 52.776 866.596 52.76C867.412 52.744 868.044 52.712 868.492 52.664C868.956 52.6 869.3 52.528 869.524 52.448C869.748 52.352 869.94 52.248 870.1 52.136C870.292 51.992 870.452 51.8 870.58 51.56C870.724 51.304 870.836 50.968 870.916 50.552C870.996 50.136 871.036 49.616 871.036 48.992C871.036 48.208 870.964 47.552 870.82 47.024C870.692 46.48 870.5 46.072 870.244 45.8C870.004 45.528 869.708 45.392 869.356 45.392C869.1 45.392 868.86 45.48 868.636 45.656C868.412 45.816 868.228 46.04 868.084 46.328C867.94 46.616 867.868 46.944 867.868 47.312C867.868 47.52 867.924 47.704 868.036 47.864C868.148 48.024 868.324 48.144 868.564 48.224C868.804 48.304 869.108 48.344 869.476 48.344C869.828 48.344 870.196 48.304 870.58 48.224C870.98 48.128 871.348 48 871.684 47.84L871.78 50.696C871.524 50.872 871.228 51.032 870.892 51.176C870.556 51.32 870.196 51.432 869.812 51.512C869.444 51.576 869.068 51.608 868.684 51.608C867.836 51.608 867.1 51.496 866.476 51.272C865.868 51.032 865.396 50.648 865.06 50.12C864.724 49.592 864.556 48.872 864.556 47.96C864.556 47.256 864.676 46.56 864.916 45.872C865.156 45.168 865.5 44.536 865.948 43.976C866.396 43.4 866.924 42.944 867.532 42.608C868.14 42.256 868.812 42.08 869.548 42.08C870.636 42.08 871.532 42.4 872.236 43.04C872.956 43.664 873.484 44.512 873.82 45.584C874.172 46.64 874.348 47.816 874.348 49.112C874.348 50.248 874.18 51.24 873.844 52.088C873.508 52.92 873.108 53.576 872.644 54.056C872.26 54.456 871.82 54.792 871.324 55.064C870.828 55.336 870.22 55.552 869.5 55.712C868.796 55.856 867.924 55.96 866.884 56.024C865.86 56.088 864.62 56.12 863.164 56.12ZM869.5 39.848C869.004 39.848 868.58 39.68 868.228 39.344C867.892 39.008 867.724 38.592 867.724 38.096C867.724 37.6 867.892 37.176 868.228 36.824C868.58 36.472 869.004 36.296 869.5 36.296C869.98 36.296 870.388 36.472 870.724 36.824C871.076 37.176 871.252 37.6 871.252 38.096C871.252 38.592 871.076 39.008 870.724 39.344C870.388 39.68 869.98 39.848 869.5 39.848ZM874.939 61.544L873.715 58.568C874.563 58.28 875.339 57.944 876.043 57.56C876.763 57.176 877.387 56.752 877.915 56.288C878.443 55.824 878.851 55.32 879.139 54.776C879.427 54.216 879.571 53.616 879.571 52.976C879.571 52.304 879.419 51.568 879.115 50.768C878.811 49.968 878.443 49.152 878.011 48.32L881.155 46.808C881.443 47.304 881.691 47.84 881.899 48.416C882.123 48.976 882.307 49.48 882.451 49.928C882.595 50.376 882.691 50.68 882.739 50.84C882.963 51.608 883.267 52.12 883.651 52.376C884.051 52.632 884.691 52.76 885.571 52.76C886.179 52.76 886.611 52.92 886.867 53.24C887.139 53.544 887.275 53.928 887.275 54.392C887.275 54.888 887.107 55.304 886.771 55.64C886.435 55.96 885.955 56.12 885.331 56.12C884.675 56.12 884.099 56.024 883.603 55.832C883.107 55.64 882.707 55.36 882.403 54.992C882.115 54.624 881.931 54.192 881.851 53.696L882.739 54.2C882.643 55.048 882.363 55.848 881.899 56.6C881.451 57.368 880.867 58.072 880.147 58.712C879.427 59.352 878.619 59.912 877.723 60.392C876.827 60.872 875.899 61.256 874.939 61.544ZM885.359 56.12L885.599 52.76C886.463 52.76 887.319 52.712 888.167 52.616C889.015 52.52 889.839 52.376 890.639 52.184C891.439 51.992 892.199 51.744 892.919 51.44C893.655 51.136 894.343 50.768 894.983 50.336C894.503 50.048 893.983 49.8 893.423 49.592C892.863 49.384 892.263 49.232 891.623 49.136C890.999 49.024 890.335 48.968 889.631 48.968C889.375 48.968 889.103 48.976 888.815 48.992C888.543 49.008 888.263 49.04 887.975 49.088C887.687 49.12 887.399 49.168 887.111 49.232L886.631 45.944C887.095 45.816 887.583 45.728 888.095 45.68C888.623 45.616 889.087 45.584 889.487 45.584C890.351 45.584 891.143 45.68 891.863 45.872C892.599 46.064 893.271 46.304 893.879 46.592C894.503 46.88 895.079 47.168 895.607 47.456C896.151 47.744 896.663 47.984 897.143 48.176C897.639 48.368 898.119 48.464 898.583 48.464H899.471L899.855 51.656C899.167 51.688 898.519 51.824 897.911 52.064C897.319 52.288 896.727 52.576 896.135 52.928C895.559 53.264 894.935 53.616 894.263 53.984C893.607 54.352 892.863 54.696 892.031 55.016C891.199 55.336 890.239 55.6 889.151 55.808C888.063 56.016 886.799 56.12 885.359 56.12ZM911.24 52.76C911.96 52.76 912.512 52.696 912.896 52.568C913.28 52.44 913.544 52.272 913.688 52.064C913.832 51.856 913.904 51.632 913.904 51.392C913.904 51.008 913.792 50.56 913.568 50.048C913.36 49.536 913.096 49 912.776 48.44C912.456 47.88 912.12 47.344 911.768 46.832C911.432 46.32 911.128 45.872 910.856 45.488L913.712 43.592C914.4 44.52 914.992 45.44 915.488 46.352C915.984 47.248 916.384 48.08 916.688 48.848C917.008 49.616 917.232 50.272 917.36 50.816C917.488 51.328 917.68 51.728 917.936 52.016C918.208 52.288 918.52 52.48 918.872 52.592C919.224 52.704 919.576 52.76 919.928 52.76C920.536 52.76 920.968 52.92 921.224 53.24C921.496 53.544 921.632 53.928 921.632 54.392C921.632 54.888 921.464 55.304 921.128 55.64C920.808 55.96 920.328 56.12 919.688 56.12C918.984 56.12 918.368 56.024 917.84 55.832C917.312 55.64 916.864 55.336 916.496 54.92C916.128 54.504 915.816 53.976 915.56 53.336L917.024 53.648C916.896 54.096 916.6 54.512 916.136 54.896C915.688 55.264 915.088 55.568 914.336 55.808C913.6 56.032 912.728 56.144 911.72 56.144C911.24 56.144 910.704 56.104 910.112 56.024C909.536 55.944 908.96 55.824 908.384 55.664C907.824 55.504 907.312 55.296 906.848 55.04L908.024 51.992C908.616 52.248 909.184 52.44 909.728 52.568C910.288 52.696 910.792 52.76 911.24 52.76ZM919.719 56.12L919.959 52.76C920.919 52.76 921.655 52.712 922.167 52.616C922.679 52.52 923.031 52.344 923.223 52.088C923.431 51.816 923.535 51.432 923.535 50.936C923.535 50.488 923.471 49.952 923.343 49.328C923.231 48.704 923.079 48.056 922.887 47.384C922.711 46.712 922.519 46.096 922.311 45.536L925.623 44.624C925.831 45.168 926.031 45.8 926.223 46.52C926.415 47.24 926.575 47.984 926.703 48.752C926.831 49.504 926.895 50.232 926.895 50.936C926.895 52.024 926.719 52.912 926.367 53.6C926.015 54.272 925.519 54.792 924.879 55.16C924.255 55.528 923.503 55.784 922.623 55.928C921.743 56.056 920.775 56.12 919.719 56.12ZM925.647 61.688C925.183 61.688 924.783 61.52 924.447 61.184C924.127 60.864 923.967 60.48 923.967 60.032C923.967 59.568 924.127 59.168 924.447 58.832C924.783 58.496 925.183 58.328 925.647 58.328C926.095 58.328 926.479 58.496 926.799 58.832C927.119 59.168 927.279 59.568 927.279 60.032C927.279 60.48 927.119 60.864 926.799 61.184C926.479 61.52 926.095 61.688 925.647 61.688ZM921.495 61.688C921.031 61.688 920.631 61.52 920.295 61.184C919.975 60.864 919.815 60.48 919.815 60.032C919.815 59.568 919.975 59.168 920.295 58.832C920.631 58.496 921.031 58.328 921.495 58.328C921.943 58.328 922.327 58.496 922.647 58.832C922.967 59.168 923.127 59.568 923.127 60.032C923.127 60.48 922.967 60.864 922.647 61.184C922.327 61.52 921.943 61.688 921.495 61.688ZM928.728 61.544L927.504 58.568C928.352 58.28 929.128 57.944 929.832 57.56C930.552 57.176 931.176 56.752 931.704 56.288C932.232 55.824 932.64 55.32 932.928 54.776C933.216 54.216 933.36 53.616 933.36 52.976C933.36 52.304 933.208 51.568 932.904 50.768C932.6 49.968 932.232 49.152 931.8 48.32L934.944 46.808C935.232 47.304 935.48 47.84 935.688 48.416C935.912 48.976 936.096 49.48 936.24 49.928C936.384 50.376 936.48 50.68 936.528 50.84C936.752 51.608 937.056 52.12 937.44 52.376C937.84 52.632 938.48 52.76 939.36 52.76C939.968 52.76 940.4 52.92 940.656 53.24C940.928 53.544 941.064 53.928 941.064 54.392C941.064 54.888 940.896 55.304 940.56 55.64C940.224 55.96 939.744 56.12 939.12 56.12C938.464 56.12 937.888 56.024 937.392 55.832C936.896 55.64 936.496 55.36 936.192 54.992C935.904 54.624 935.72 54.192 935.64 53.696L936.528 54.2C936.432 55.048 936.152 55.848 935.688 56.6C935.24 57.368 934.656 58.072 933.936 58.712C933.216 59.352 932.408 59.912 931.512 60.392C930.616 60.872 929.688 61.256 928.728 61.544ZM939.148 56.12L939.388 52.76C940.252 52.76 941.108 52.712 941.956 52.616C942.804 52.52 943.628 52.376 944.428 52.184C945.228 51.992 945.988 51.744 946.708 51.44C947.444 51.136 948.132 50.768 948.772 50.336C948.292 50.048 947.772 49.8 947.212 49.592C946.652 49.384 946.052 49.232 945.412 49.136C944.788 49.024 944.124 48.968 943.42 48.968C943.164 48.968 942.892 48.976 942.604 48.992C942.332 49.008 942.052 49.04 941.764 49.088C941.476 49.12 941.188 49.168 940.9 49.232L940.42 45.944C940.884 45.816 941.372 45.728 941.884 45.68C942.412 45.616 942.876 45.584 943.276 45.584C944.14 45.584 944.932 45.68 945.652 45.872C946.388 46.064 947.06 46.304 947.668 46.592C948.292 46.88 948.868 47.168 949.396 47.456C949.94 47.744 950.452 47.984 950.932 48.176C951.428 48.368 951.908 48.464 952.372 48.464H953.26L953.644 51.656C952.956 51.688 952.308 51.824 951.7 52.064C951.108 52.288 950.516 52.576 949.924 52.928C949.348 53.264 948.724 53.616 948.052 53.984C947.396 54.352 946.652 54.696 945.82 55.016C944.988 55.336 944.028 55.6 942.94 55.808C941.852 56.016 940.588 56.12 939.148 56.12ZM943.3 43.352C942.804 43.352 942.38 43.184 942.028 42.848C941.692 42.512 941.524 42.096 941.524 41.6C941.524 41.104 941.692 40.68 942.028 40.328C942.38 39.976 942.804 39.8 943.3 39.8C943.78 39.8 944.188 39.976 944.524 40.328C944.876 40.68 945.052 41.104 945.052 41.6C945.052 42.096 944.876 42.512 944.524 42.848C944.188 43.184 943.78 43.352 943.3 43.352ZM963.541 56.096C963.093 56.096 962.693 56.008 962.341 55.832C961.989 55.656 961.717 55.416 961.525 55.112C961.333 54.792 961.237 54.432 961.237 54.032C961.237 53.648 961.309 53.216 961.453 52.736C961.613 52.24 961.813 51.744 962.053 51.248C962.309 50.736 962.565 50.264 962.821 49.832L965.101 50.912C964.941 51.2 964.789 51.512 964.645 51.848C964.501 52.168 964.373 52.456 964.261 52.712C964.165 52.952 964.109 53.12 964.093 53.216C964.509 53.328 964.829 53.504 965.053 53.744C965.277 53.968 965.389 54.264 965.389 54.632C965.389 55.112 965.213 55.48 964.861 55.736C964.525 55.976 964.085 56.096 963.541 56.096ZM972.787 52.76C973.507 52.76 974.059 52.696 974.443 52.568C974.827 52.44 975.091 52.272 975.235 52.064C975.379 51.856 975.451 51.632 975.451 51.392C975.451 51.008 975.339 50.56 975.115 50.048C974.907 49.536 974.643 49 974.323 48.44C974.003 47.88 973.667 47.344 973.315 46.832C972.979 46.32 972.675 45.872 972.403 45.488L975.259 43.592C975.947 44.52 976.539 45.44 977.035 46.352C977.531 47.248 977.931 48.08 978.235 48.848C978.555 49.616 978.779 50.272 978.907 50.816C979.035 51.328 979.227 51.728 979.483 52.016C979.755 52.288 980.067 52.48 980.419 52.592C980.771 52.704 981.123 52.76 981.475 52.76C982.083 52.76 982.515 52.92 982.771 53.24C983.043 53.544 983.179 53.928 983.179 54.392C983.179 54.888 983.011 55.304 982.675 55.64C982.355 55.96 981.875 56.12 981.235 56.12C980.531 56.12 979.915 56.024 979.387 55.832C978.859 55.64 978.411 55.336 978.043 54.92C977.675 54.504 977.363 53.976 977.107 53.336L978.571 53.648C978.443 54.096 978.147 54.512 977.683 54.896C977.235 55.264 976.635 55.568 975.883 55.808C975.147 56.032 974.275 56.144 973.267 56.144C972.787 56.144 972.251 56.104 971.659 56.024C971.083 55.944 970.507 55.824 969.931 55.664C969.371 55.504 968.859 55.296 968.395 55.04L969.571 51.992C970.163 52.248 970.731 52.44 971.275 52.568C971.835 52.696 972.339 52.76 972.787 52.76ZM981.266 56.12L981.506 52.76C982.114 52.76 982.594 52.704 982.946 52.592C983.314 52.48 983.602 52.256 983.81 51.92C984.034 51.568 984.218 51.056 984.362 50.384C984.522 49.712 984.682 48.816 984.842 47.696L987.986 48.224C987.954 48.464 987.906 48.744 987.842 49.064C987.794 49.384 987.746 49.712 987.698 50.048C987.666 50.368 987.65 50.672 987.65 50.96C987.65 51.344 987.73 51.672 987.89 51.944C988.066 52.2 988.37 52.4 988.802 52.544C989.25 52.688 989.89 52.76 990.722 52.76C991.33 52.76 991.762 52.92 992.018 53.24C992.274 53.544 992.402 53.928 992.402 54.392C992.402 54.888 992.234 55.304 991.898 55.64C991.578 55.96 991.106 56.12 990.482 56.12C989.378 56.12 988.482 56.016 987.794 55.808C987.106 55.6 986.594 55.248 986.258 54.752C985.922 54.256 985.706 53.576 985.61 52.712H986.762C986.474 53.48 986.138 54.096 985.754 54.56C985.37 55.008 984.938 55.344 984.458 55.568C983.978 55.792 983.466 55.936 982.922 56C982.394 56.08 981.842 56.12 981.266 56.12ZM986.162 45.248C985.666 45.248 985.242 45.08 984.89 44.744C984.554 44.408 984.386 43.992 984.386 43.496C984.386 43 984.554 42.576 984.89 42.224C985.242 41.872 985.666 41.696 986.162 41.696C986.642 41.696 987.05 41.872 987.386 42.224C987.738 42.576 987.914 43 987.914 43.496C987.914 43.992 987.738 44.408 987.386 44.744C987.05 45.08 986.642 45.248 986.162 45.248ZM990.477 56.12L990.717 52.76C991.117 52.76 991.421 52.68 991.629 52.52C991.837 52.36 992.045 52.08 992.253 51.68C992.461 51.28 992.749 50.736 993.117 50.048C993.517 49.28 993.933 48.64 994.365 48.128C994.797 47.6 995.229 47.184 995.661 46.88C996.109 46.56 996.549 46.336 996.981 46.208C997.429 46.064 997.869 45.992 998.301 45.992C998.893 45.992 999.445 46.12 999.957 46.376C1000.48 46.616 1000.99 47.04 1001.47 47.648C1001.95 48.24 1002.4 49.056 1002.84 50.096C1003.14 50.816 1003.44 51.368 1003.75 51.752C1004.05 52.136 1004.36 52.4 1004.68 52.544C1005.02 52.688 1005.36 52.76 1005.69 52.76C1006.3 52.76 1006.73 52.92 1006.99 53.24C1007.24 53.544 1007.37 53.928 1007.37 54.392C1007.37 54.888 1007.2 55.304 1006.87 55.64C1006.53 55.96 1006.06 56.12 1005.45 56.12C1004.67 56.12 1003.96 55.992 1003.32 55.736C1002.68 55.48 1002.17 55.096 1001.8 54.584L1002.5 54.056C1002.36 54.392 1002.14 54.744 1001.85 55.112C1001.58 55.48 1001.22 55.792 1000.77 56.048C1000.34 56.304 999.821 56.432 999.213 56.432C998.813 56.432 998.341 56.352 997.797 56.192C997.269 56.048 996.717 55.8 996.141 55.448C995.581 55.08 995.061 54.584 994.581 53.96C994.277 54.52 993.941 54.96 993.573 55.28C993.205 55.584 992.773 55.8 992.277 55.928C991.781 56.056 991.181 56.12 990.477 56.12ZM995.973 51.128C996.133 51.368 996.325 51.608 996.549 51.848C996.773 52.088 997.021 52.304 997.293 52.496C997.565 52.672 997.853 52.816 998.157 52.928C998.477 53.04 998.789 53.096 999.093 53.096C999.413 53.096 999.677 52.976 999.885 52.736C1000.09 52.48 1000.1 52.104 999.909 51.608C999.829 51.4 999.717 51.168 999.573 50.912C999.445 50.64 999.293 50.384 999.117 50.144C998.957 49.904 998.773 49.704 998.565 49.544C998.373 49.384 998.173 49.304 997.965 49.304C997.757 49.304 997.541 49.368 997.317 49.496C997.093 49.624 996.869 49.824 996.645 50.096C996.421 50.352 996.197 50.696 995.973 51.128ZM1005.45 56.12L1005.69 52.76C1006.22 52.76 1006.65 52.72 1006.99 52.64C1007.33 52.544 1007.6 52.344 1007.81 52.04C1008.03 51.72 1008.22 51.248 1008.38 50.624C1008.56 49.984 1008.75 49.12 1008.96 48.032L1012.08 48.608C1012.03 48.848 1011.97 49.128 1011.91 49.448C1011.85 49.768 1011.79 50.096 1011.74 50.432C1011.69 50.752 1011.67 51.04 1011.67 51.296C1011.67 51.744 1011.81 52.104 1012.1 52.376C1012.39 52.632 1012.93 52.76 1013.73 52.76C1014.13 52.76 1014.48 52.72 1014.77 52.64C1015.07 52.544 1015.33 52.344 1015.53 52.04C1015.76 51.72 1015.95 51.232 1016.11 50.576C1016.29 49.904 1016.45 49 1016.61 47.864L1019.78 48.368C1019.72 48.736 1019.65 49.128 1019.59 49.544C1019.53 49.96 1019.47 50.344 1019.42 50.696C1019.37 51.048 1019.35 51.336 1019.35 51.56C1019.35 51.768 1019.41 51.968 1019.52 52.16C1019.65 52.336 1019.87 52.48 1020.19 52.592C1020.53 52.704 1021 52.76 1021.61 52.76C1022.04 52.76 1022.41 52.704 1022.71 52.592C1023.03 52.48 1023.27 52.296 1023.43 52.04C1023.61 51.784 1023.69 51.448 1023.69 51.032C1023.69 50.44 1023.56 49.664 1023.29 48.704C1023.01 47.744 1022.69 46.736 1022.33 45.68L1025.71 44.672C1025.97 45.36 1026.19 46.096 1026.38 46.88C1026.59 47.648 1026.75 48.4 1026.86 49.136C1026.99 49.856 1027.05 50.488 1027.05 51.032C1027.05 51.848 1026.93 52.576 1026.67 53.216C1026.41 53.84 1026.05 54.368 1025.59 54.8C1025.13 55.232 1024.57 55.56 1023.93 55.784C1023.29 56.008 1022.59 56.12 1021.82 56.12C1020.89 56.12 1020.13 56.032 1019.54 55.856C1018.95 55.664 1018.49 55.352 1018.17 54.92C1017.87 54.472 1017.67 53.864 1017.57 53.096H1018.39C1018.05 54.04 1017.68 54.728 1017.26 55.16C1016.85 55.576 1016.35 55.84 1015.77 55.952C1015.21 56.064 1014.51 56.12 1013.66 56.12C1013.13 56.12 1012.59 56.064 1012.03 55.952C1011.49 55.824 1011 55.536 1010.57 55.088C1010.13 54.64 1009.81 53.944 1009.61 53L1010.9 52.952C1010.57 53.896 1010.13 54.592 1009.58 55.04C1009.05 55.488 1008.45 55.784 1007.76 55.928C1007.07 56.056 1006.3 56.12 1005.45 56.12ZM1018.01 41.264C1017.61 41.264 1017.25 41.112 1016.95 40.808C1016.66 40.504 1016.52 40.144 1016.52 39.728C1016.52 39.312 1016.66 38.96 1016.95 38.672C1017.25 38.384 1017.61 38.24 1018.01 38.24C1018.42 38.24 1018.77 38.384 1019.06 38.672C1019.35 38.96 1019.49 39.312 1019.49 39.728C1019.49 40.144 1019.35 40.504 1019.06 40.808C1018.77 41.112 1018.42 41.264 1018.01 41.264ZM1016.09 44.432C1015.69 44.432 1015.33 44.28 1015.03 43.976C1014.74 43.672 1014.6 43.312 1014.6 42.896C1014.6 42.48 1014.74 42.128 1015.03 41.84C1015.33 41.552 1015.69 41.408 1016.09 41.408C1016.5 41.408 1016.85 41.552 1017.14 41.84C1017.43 42.128 1017.57 42.48 1017.57 42.896C1017.57 43.312 1017.43 43.672 1017.14 43.976C1016.85 44.28 1016.5 44.432 1016.09 44.432ZM1019.81 44.432C1019.41 44.432 1019.05 44.28 1018.75 43.976C1018.46 43.672 1018.32 43.312 1018.32 42.896C1018.32 42.48 1018.46 42.128 1018.75 41.84C1019.05 41.552 1019.41 41.408 1019.81 41.408C1020.22 41.408 1020.57 41.552 1020.86 41.84C1021.15 42.128 1021.29 42.48 1021.29 42.896C1021.29 43.312 1021.15 43.672 1020.86 43.976C1020.57 44.28 1020.22 44.432 1019.81 44.432ZM1029.63 61.52L1028.93 58.16C1030.07 58.016 1031.06 57.84 1031.91 57.632C1032.75 57.44 1033.47 57.168 1034.04 56.816C1034.62 56.464 1035.05 55.984 1035.34 55.376C1035.63 54.752 1035.77 53.952 1035.77 52.976C1035.77 52.032 1035.63 51.28 1035.34 50.72C1035.05 50.16 1034.67 49.88 1034.19 49.88C1033.85 49.88 1033.57 50 1033.35 50.24C1033.12 50.464 1032.95 50.736 1032.84 51.056C1032.75 51.36 1032.7 51.632 1032.7 51.872C1032.7 52.016 1032.74 52.168 1032.82 52.328C1032.9 52.488 1033.07 52.624 1033.35 52.736C1033.62 52.848 1034.04 52.912 1034.62 52.928C1035.21 52.944 1036.01 52.888 1037.02 52.76H1041.05C1041.66 52.76 1042.09 52.92 1042.35 53.24C1042.62 53.544 1042.75 53.928 1042.75 54.392C1042.75 54.888 1042.59 55.304 1042.25 55.64C1041.91 55.96 1041.43 56.12 1040.81 56.12H1034.21C1033.2 56.12 1032.34 56 1031.62 55.76C1030.9 55.52 1030.35 55.136 1029.96 54.608C1029.58 54.064 1029.39 53.344 1029.39 52.448C1029.39 51.728 1029.51 51.008 1029.75 50.288C1030 49.568 1030.35 48.912 1030.8 48.32C1031.25 47.712 1031.77 47.232 1032.36 46.88C1032.97 46.512 1033.63 46.328 1034.33 46.328C1035.29 46.328 1036.13 46.624 1036.85 47.216C1037.57 47.808 1038.13 48.592 1038.53 49.568C1038.95 50.544 1039.15 51.608 1039.15 52.76C1039.15 54.568 1038.77 56.104 1038 57.368C1037.23 58.632 1036.14 59.608 1034.71 60.296C1033.29 61 1031.59 61.408 1029.63 61.52ZM1050.61 56.192C1049.89 56.192 1049.15 56.104 1048.38 55.928C1047.63 55.752 1046.9 55.488 1046.2 55.136C1045.49 54.784 1044.86 54.344 1044.3 53.816C1043.74 53.288 1043.29 52.68 1042.96 51.992C1042.64 51.288 1042.48 50.496 1042.48 49.616C1042.48 48.896 1042.63 48.232 1042.93 47.624C1043.24 47.016 1043.68 46.528 1044.28 46.16C1044.88 45.776 1045.62 45.584 1046.48 45.584C1047.3 45.584 1048 45.784 1048.6 46.184C1049.2 46.568 1049.68 47.072 1050.01 47.696C1050.35 48.304 1050.52 48.944 1050.52 49.616C1050.52 50.688 1050.25 51.632 1049.72 52.448C1049.2 53.248 1048.47 53.92 1047.54 54.464C1046.63 55.008 1045.6 55.424 1044.44 55.712C1043.29 55.984 1042.09 56.12 1040.84 56.12L1041.08 52.76C1042 52.76 1042.79 52.736 1043.46 52.688C1044.15 52.64 1044.74 52.536 1045.24 52.376C1045.73 52.216 1046.16 51.976 1046.53 51.656C1046.9 51.336 1047.18 50.984 1047.37 50.6C1047.58 50.2 1047.68 49.808 1047.68 49.424C1047.68 49.168 1047.64 48.928 1047.56 48.704C1047.5 48.48 1047.39 48.296 1047.23 48.152C1047.08 47.992 1046.89 47.912 1046.65 47.912C1046.4 47.912 1046.18 47.992 1046 48.152C1045.84 48.296 1045.72 48.488 1045.62 48.728C1045.54 48.968 1045.5 49.224 1045.5 49.496C1045.5 50.056 1045.64 50.56 1045.93 51.008C1046.24 51.456 1046.64 51.832 1047.13 52.136C1047.63 52.44 1048.17 52.672 1048.76 52.832C1049.37 52.992 1049.99 53.072 1050.61 53.072C1051.11 53.072 1051.46 52.992 1051.67 52.832C1051.88 52.672 1051.98 52.456 1051.98 52.184C1051.98 51.992 1051.93 51.792 1051.84 51.584C1051.76 51.36 1051.57 51.088 1051.28 50.768C1051 50.448 1050.56 50.056 1049.96 49.592C1049.37 49.112 1048.58 48.52 1047.59 47.816C1046.6 47.112 1045.35 46.256 1043.84 45.248L1045.69 42.632C1047.39 43.832 1048.8 44.88 1049.94 45.776C1051.09 46.672 1052.02 47.456 1052.72 48.128C1053.43 48.8 1053.96 49.392 1054.33 49.904C1054.72 50.4 1054.97 50.856 1055.1 51.272C1055.23 51.688 1055.29 52.104 1055.29 52.52C1055.29 53.288 1055.11 53.944 1054.74 54.488C1054.37 55.032 1053.84 55.456 1053.13 55.76C1052.44 56.048 1051.6 56.192 1050.61 56.192ZM1071.97 56.504L1072.6 53.144C1074.15 53.144 1075.5 53.104 1076.65 53.024C1077.81 52.928 1078.76 52.792 1079.51 52.616C1080.28 52.424 1080.85 52.176 1081.21 51.872C1081.6 51.568 1081.79 51.2 1081.79 50.768C1081.79 50.192 1081.69 49.504 1081.5 48.704C1081.31 47.888 1081.06 47.064 1080.76 46.232L1083.9 45.32C1084.11 45.864 1084.31 46.464 1084.5 47.12C1084.69 47.76 1084.85 48.408 1084.96 49.064C1085.09 49.704 1085.15 50.304 1085.15 50.864C1085.15 51.856 1084.93 52.712 1084.5 53.432C1084.07 54.136 1083.35 54.72 1082.34 55.184C1081.35 55.632 1080.01 55.96 1078.31 56.168C1076.61 56.392 1074.5 56.504 1071.97 56.504ZM1071.95 56.504C1070.22 56.504 1068.76 56.368 1067.56 56.096C1066.37 55.84 1065.41 55.472 1064.65 54.992C1063.92 54.496 1063.38 53.92 1063.05 53.264C1062.71 52.608 1062.54 51.888 1062.54 51.104C1062.54 50.592 1062.58 50.08 1062.66 49.568C1062.76 49.04 1062.87 48.528 1063 48.032C1063.14 47.536 1063.27 47.088 1063.38 46.688L1066.38 47.384C1066.32 47.672 1066.25 47.984 1066.17 48.32C1066.09 48.656 1066.02 48.984 1065.97 49.304C1065.93 49.608 1065.9 49.888 1065.9 50.144C1065.9 50.736 1066.11 51.264 1066.53 51.728C1066.96 52.176 1067.66 52.528 1068.64 52.784C1069.61 53.024 1070.93 53.144 1072.57 53.144L1073.05 55.736L1071.95 56.504ZM1073.8 62.12C1073.33 62.12 1072.93 61.96 1072.6 61.64C1072.28 61.32 1072.12 60.928 1072.12 60.464C1072.12 60 1072.28 59.592 1072.6 59.24C1072.93 58.904 1073.33 58.736 1073.8 58.736C1074.26 58.736 1074.65 58.904 1074.97 59.24C1075.31 59.592 1075.48 60 1075.48 60.464C1075.48 60.928 1075.31 61.32 1074.97 61.64C1074.65 61.96 1074.26 62.12 1073.8 62.12ZM1093.97 56.12C1092.48 56.12 1091.33 55.968 1090.51 55.664C1089.71 55.36 1089.15 54.888 1088.83 54.248C1088.51 53.592 1088.33 52.768 1088.28 51.776L1087.78 38.432H1091.14L1091.64 50.168C1091.67 50.904 1091.75 51.456 1091.88 51.824C1092.01 52.192 1092.25 52.44 1092.6 52.568C1092.97 52.696 1093.5 52.76 1094.21 52.76C1094.82 52.76 1095.25 52.92 1095.5 53.24C1095.78 53.544 1095.91 53.928 1095.91 54.392C1095.91 54.888 1095.74 55.304 1095.41 55.64C1095.07 55.96 1094.59 56.12 1093.97 56.12ZM1109.7 56.12C1108.96 56.12 1108.27 56.064 1107.63 55.952C1107.01 55.84 1106.43 55.648 1105.9 55.376C1105.38 55.088 1104.9 54.696 1104.49 54.2C1104.09 53.704 1103.75 53.08 1103.48 52.328L1105.38 50.816C1105.66 51.328 1106.02 51.728 1106.43 52.016C1106.85 52.288 1107.34 52.48 1107.92 52.592C1108.5 52.704 1109.17 52.76 1109.94 52.76C1110.54 52.76 1110.98 52.92 1111.23 53.24C1111.49 53.544 1111.62 53.928 1111.62 54.392C1111.62 54.888 1111.45 55.304 1111.11 55.64C1110.79 55.96 1110.32 56.12 1109.7 56.12ZM1094 56.12L1094.24 52.76C1095.1 52.76 1095.96 52.712 1096.81 52.616C1097.66 52.52 1098.48 52.376 1099.28 52.184C1100.08 51.992 1100.84 51.744 1101.56 51.44C1102.3 51.136 1102.98 50.768 1103.62 50.336C1103.14 50.048 1102.62 49.8 1102.06 49.592C1101.5 49.384 1100.9 49.232 1100.26 49.136C1099.64 49.024 1098.98 48.968 1098.27 48.968C1098.02 48.968 1097.74 48.976 1097.46 48.992C1097.18 49.008 1096.9 49.04 1096.62 49.088C1096.33 49.12 1096.04 49.168 1095.75 49.232L1095.27 45.944C1095.74 45.816 1096.22 45.728 1096.74 45.68C1097.26 45.616 1097.73 45.584 1098.13 45.584C1098.99 45.584 1099.78 45.68 1100.5 45.872C1101.24 46.064 1101.91 46.304 1102.52 46.592C1103.14 46.88 1103.72 47.168 1104.25 47.456C1104.79 47.744 1105.3 47.984 1105.78 48.176C1106.28 48.368 1106.76 48.464 1107.22 48.464H1108.11L1108.5 51.656C1107.81 51.688 1107.16 51.824 1106.55 52.064C1105.96 52.288 1105.37 52.576 1104.78 52.928C1104.2 53.264 1103.58 53.616 1102.9 53.984C1102.25 54.352 1101.5 54.696 1100.67 55.016C1099.84 55.336 1098.88 55.6 1097.79 55.808C1096.7 56.016 1095.44 56.12 1094 56.12ZM1098.13 43.112C1097.63 43.112 1097.21 42.944 1096.86 42.608C1096.52 42.272 1096.35 41.856 1096.35 41.36C1096.35 40.864 1096.52 40.44 1096.86 40.088C1097.21 39.736 1097.63 39.56 1098.13 39.56C1098.61 39.56 1099.02 39.736 1099.35 40.088C1099.7 40.44 1099.88 40.864 1099.88 41.36C1099.88 41.856 1099.7 42.272 1099.35 42.608C1099.02 42.944 1098.61 43.112 1098.13 43.112ZM1109.7 56.12L1109.94 52.76C1110.52 52.76 1111.02 52.704 1111.43 52.592C1111.85 52.48 1112.2 52.256 1112.49 51.92C1112.78 51.568 1113.02 51.056 1113.21 50.384C1113.42 49.712 1113.6 48.816 1113.76 47.696L1116.9 48.224C1116.87 48.464 1116.82 48.744 1116.76 49.064C1116.71 49.384 1116.66 49.712 1116.62 50.048C1116.58 50.368 1116.57 50.672 1116.57 50.96C1116.57 51.248 1116.62 51.504 1116.74 51.728C1116.85 51.952 1117.02 52.144 1117.26 52.304C1117.52 52.448 1117.85 52.56 1118.25 52.64C1118.66 52.72 1119.17 52.76 1119.76 52.76C1120.37 52.76 1120.8 52.92 1121.06 53.24C1121.31 53.544 1121.44 53.928 1121.44 54.392C1121.44 54.888 1121.27 55.304 1120.94 55.64C1120.62 55.96 1120.14 56.12 1119.52 56.12C1118.8 56.12 1118.14 56.064 1117.55 55.952C1116.98 55.84 1116.47 55.656 1116.04 55.4C1115.62 55.128 1115.28 54.776 1115.01 54.344C1114.75 53.896 1114.59 53.352 1114.53 52.712H1115.68C1115.39 53.48 1115.02 54.096 1114.58 54.56C1114.14 55.008 1113.66 55.344 1113.11 55.568C1112.57 55.792 1112 55.936 1111.41 56C1110.83 56.08 1110.26 56.12 1109.7 56.12ZM1117.41 45.536C1116.94 45.536 1116.54 45.376 1116.21 45.056C1115.89 44.72 1115.73 44.328 1115.73 43.88C1115.73 43.416 1115.89 43.016 1116.21 42.68C1116.54 42.344 1116.94 42.176 1117.41 42.176C1117.86 42.176 1118.24 42.344 1118.56 42.68C1118.88 43.016 1119.04 43.416 1119.04 43.88C1119.04 44.328 1118.88 44.72 1118.56 45.056C1118.24 45.376 1117.86 45.536 1117.41 45.536ZM1113.26 45.512C1112.79 45.512 1112.39 45.352 1112.06 45.032C1111.74 44.696 1111.58 44.304 1111.58 43.856C1111.58 43.392 1111.74 42.992 1112.06 42.656C1112.39 42.32 1112.79 42.152 1113.26 42.152C1113.7 42.152 1114.09 42.32 1114.41 42.656C1114.73 42.992 1114.89 43.392 1114.89 43.856C1114.89 44.304 1114.73 44.696 1114.41 45.032C1114.09 45.352 1113.7 45.512 1113.26 45.512ZM1119.52 56.12L1119.76 52.76C1120.47 52.76 1121.02 52.712 1121.42 52.616C1121.84 52.52 1122.13 52.344 1122.31 52.088C1122.48 51.816 1122.57 51.432 1122.57 50.936C1122.57 50.488 1122.51 49.952 1122.38 49.328C1122.27 48.704 1122.12 48.056 1121.92 47.384C1121.73 46.712 1121.54 46.096 1121.35 45.536L1124.66 44.624C1124.85 45.168 1125.04 45.8 1125.24 46.52C1125.43 47.24 1125.59 47.984 1125.72 48.752C1125.86 49.504 1125.93 50.232 1125.93 50.936C1125.93 51.816 1125.82 52.56 1125.6 53.168C1125.37 53.76 1125.06 54.256 1124.66 54.656C1124.28 55.04 1123.81 55.344 1123.27 55.568C1122.74 55.776 1122.16 55.92 1121.52 56C1120.88 56.08 1120.21 56.12 1119.52 56.12ZM1122.98 42.632C1122.48 42.632 1122.06 42.464 1121.71 42.128C1121.37 41.792 1121.2 41.376 1121.2 40.88C1121.2 40.384 1121.37 39.96 1121.71 39.608C1122.06 39.256 1122.48 39.08 1122.98 39.08C1123.46 39.08 1123.87 39.256 1124.2 39.608C1124.56 39.96 1124.73 40.384 1124.73 40.88C1124.73 41.376 1124.56 41.792 1124.2 42.128C1123.87 42.464 1123.46 42.632 1122.98 42.632ZM1129.06 56L1128.56 38.432H1131.92L1132.42 56H1129.06Z" fill="white"/>
</svg>
