<svg width="1000" height="200" viewBox="0 0 1000 200" fill="none" xmlns="http://www.w3.org/2000/svg">
<rect x="0.5" y="0.5" width="999" height="199" fill="#0C5C1C" fill-opacity="0.780392" stroke="black"/>
<path d="M301.832 96.104C301.832 95.6133 301.875 95.0373 301.96 94.376C302.045 93.7147 302.205 92.968 302.44 92.136C302.675 91.2827 303.027 90.3333 303.496 89.288L307.432 90.664C307.197 91.3253 306.995 91.9333 306.824 92.488C306.653 93.0213 306.525 93.5227 306.44 93.992C306.355 94.44 306.312 94.888 306.312 95.336C306.312 95.976 306.451 96.5733 306.728 97.128C307.005 97.6827 307.421 98.1627 307.976 98.568C308.531 98.9947 309.213 99.3253 310.024 99.56C310.856 99.7947 311.816 99.912 312.904 99.912C314.141 99.912 315.229 99.7947 316.168 99.56C317.128 99.3467 317.928 99.0587 318.568 98.696C319.229 98.3547 319.731 97.992 320.072 97.608C320.413 97.224 320.584 96.872 320.584 96.552C320.584 96.296 320.403 96.072 320.04 95.88C319.699 95.688 319.24 95.496 318.664 95.304C318.109 95.0907 317.512 94.856 316.872 94.6C316.253 94.344 315.656 94.024 315.08 93.64C314.525 93.256 314.067 92.7867 313.704 92.232C313.363 91.6773 313.192 91.0053 313.192 90.216C313.192 89.4053 313.405 88.52 313.832 87.56C314.259 86.5787 314.867 85.6507 315.656 84.776C316.445 83.88 317.384 83.1547 318.472 82.6C319.581 82.024 320.797 81.736 322.12 81.736C323.059 81.736 323.912 81.8853 324.68 82.184C325.469 82.4827 326.131 82.824 326.664 83.208L325 86.952C324.552 86.6533 324.072 86.4293 323.56 86.28C323.048 86.1093 322.557 86.024 322.088 86.024C321.491 86.024 320.915 86.1413 320.36 86.376C319.827 86.6107 319.347 86.92 318.92 87.304C318.515 87.6667 318.195 88.0613 317.96 88.488C317.725 88.9147 317.608 89.32 317.608 89.704C317.608 90.088 317.789 90.4293 318.152 90.728C318.536 91.0053 319.027 91.272 319.624 91.528C320.221 91.7627 320.851 92.008 321.512 92.264C322.173 92.52 322.803 92.808 323.4 93.128C323.997 93.448 324.477 93.832 324.84 94.28C325.224 94.728 325.416 95.272 325.416 95.912C325.416 96.8293 325.128 97.7787 324.552 98.76C323.997 99.7627 323.165 100.691 322.056 101.544C320.947 102.397 319.581 103.08 317.96 103.592C316.36 104.125 314.504 104.392 312.392 104.392C310.856 104.392 309.448 104.211 308.168 103.848C306.888 103.507 305.768 102.984 304.808 102.28C303.869 101.597 303.133 100.733 302.6 99.688C302.088 98.664 301.832 97.4693 301.832 96.104ZM329.841 97L329.169 73.576H333.649L334.321 97H329.841ZM361.23 97.16C359.715 97.16 358.403 96.968 357.294 96.584C356.206 96.1787 355.363 95.5387 354.766 94.664C354.168 93.768 353.827 92.5733 353.742 91.08L353.166 78.184H357.678L358.222 89.512C358.264 90.3867 358.403 91.0587 358.638 91.528C358.894 91.976 359.256 92.2853 359.726 92.456C360.195 92.6053 360.803 92.68 361.55 92.68C362.36 92.68 362.936 92.8933 363.278 93.32C363.619 93.7253 363.79 94.2373 363.79 94.856C363.79 95.5173 363.566 96.072 363.118 96.52C362.691 96.9467 362.062 97.16 361.23 97.16ZM355.374 94.184C353.944 94.504 352.568 94.6533 351.246 94.632C349.923 94.5893 348.739 94.3547 347.694 93.928C346.648 93.48 345.816 92.84 345.198 92.008C344.6 91.176 344.302 90.12 344.302 88.84C344.302 87.7093 344.547 86.6853 345.038 85.768C345.55 84.8293 346.254 84.008 347.15 83.304C348.067 82.6 349.134 82.0027 350.35 81.512C351.566 81.0213 352.888 80.648 354.318 80.392L354.766 84.936C353.848 84.9787 353.016 85.1067 352.27 85.32C351.544 85.512 350.915 85.768 350.382 86.088C349.87 86.408 349.475 86.7707 349.198 87.176C348.92 87.56 348.782 87.976 348.782 88.424C348.782 88.7867 348.91 89.0853 349.166 89.32C349.422 89.5547 349.763 89.7467 350.19 89.896C350.616 90.024 351.107 90.0987 351.661 90.12C352.216 90.1413 352.782 90.1093 353.358 90.024C353.955 89.9387 354.542 89.8 355.118 89.608L355.374 94.184ZM361.219 97.16L361.539 92.712C363.309 92.712 364.728 92.7013 365.795 92.68C366.883 92.6587 367.725 92.616 368.323 92.552C368.941 92.4667 369.4 92.3707 369.699 92.264C369.997 92.136 370.253 91.9973 370.467 91.848C370.723 91.656 370.936 91.4 371.107 91.08C371.299 90.7387 371.448 90.2907 371.555 89.736C371.661 89.1813 371.715 88.488 371.715 87.656C371.715 86.6107 371.619 85.736 371.427 85.032C371.256 84.3067 371 83.7627 370.659 83.4C370.339 83.0373 369.944 82.856 369.475 82.856C369.133 82.856 368.813 82.9733 368.515 83.208C368.216 83.4213 367.971 83.72 367.779 84.104C367.587 84.488 367.491 84.9253 367.491 85.416C367.491 85.6933 367.565 85.9387 367.715 86.152C367.864 86.3653 368.099 86.5253 368.419 86.632C368.739 86.7387 369.144 86.792 369.635 86.792C370.104 86.792 370.595 86.7387 371.107 86.632C371.64 86.504 372.131 86.3333 372.579 86.12L372.707 89.928C372.365 90.1627 371.971 90.376 371.523 90.568C371.075 90.76 370.595 90.9093 370.083 91.016C369.592 91.1013 369.091 91.144 368.579 91.144C367.448 91.144 366.467 90.9947 365.635 90.696C364.824 90.376 364.195 89.864 363.747 89.16C363.299 88.456 363.075 87.496 363.075 86.28C363.075 85.3413 363.235 84.4133 363.555 83.496C363.875 82.5573 364.333 81.7147 364.931 80.968C365.528 80.2 366.232 79.592 367.043 79.144C367.853 78.6747 368.749 78.44 369.731 78.44C371.181 78.44 372.376 78.8667 373.315 79.72C374.275 80.552 374.979 81.6827 375.427 83.112C375.896 84.52 376.131 86.088 376.131 87.816C376.131 89.3307 375.907 90.6533 375.459 91.784C375.011 92.8933 374.477 93.768 373.859 94.408C373.347 94.9413 372.76 95.3893 372.099 95.752C371.437 96.1147 370.627 96.4027 369.667 96.616C368.728 96.808 367.565 96.9467 366.179 97.032C364.813 97.1173 363.16 97.16 361.219 97.16ZM369.667 75.464C369.005 75.464 368.44 75.24 367.971 74.792C367.523 74.344 367.299 73.7893 367.299 73.128C367.299 72.4667 367.523 71.9013 367.971 71.432C368.44 70.9627 369.005 70.728 369.667 70.728C370.307 70.728 370.851 70.9627 371.299 71.432C371.768 71.9013 372.003 72.4667 372.003 73.128C372.003 73.7893 371.768 74.344 371.299 74.792C370.851 75.24 370.307 75.464 369.667 75.464ZM376.918 104.392L375.286 100.424C376.417 100.04 377.452 99.592 378.39 99.08C379.35 98.568 380.182 98.0027 380.886 97.384C381.59 96.7653 382.134 96.0933 382.518 95.368C382.902 94.6213 383.094 93.8213 383.094 92.968C383.094 92.072 382.892 91.0907 382.486 90.024C382.081 88.9573 381.59 87.8693 381.014 86.76L385.206 84.744C385.59 85.4053 385.921 86.12 386.198 86.888C386.497 87.6347 386.742 88.3067 386.934 88.904C387.126 89.5013 387.254 89.9067 387.318 90.12C387.617 91.144 388.022 91.8267 388.534 92.168C389.068 92.5093 389.921 92.68 391.094 92.68C391.905 92.68 392.481 92.8933 392.822 93.32C393.185 93.7253 393.366 94.2373 393.366 94.856C393.366 95.5173 393.142 96.072 392.694 96.52C392.246 96.9467 391.606 97.16 390.774 97.16C389.9 97.16 389.132 97.032 388.47 96.776C387.809 96.52 387.276 96.1467 386.87 95.656C386.486 95.1653 386.241 94.5893 386.134 93.928L387.318 94.6C387.19 95.7307 386.817 96.7973 386.198 97.8C385.601 98.824 384.822 99.7627 383.862 100.616C382.902 101.469 381.825 102.216 380.63 102.856C379.436 103.496 378.198 104.008 376.918 104.392ZM390.812 97.16L391.133 92.68C392.285 92.68 393.426 92.616 394.557 92.488C395.687 92.36 396.786 92.168 397.853 91.912C398.919 91.656 399.933 91.3253 400.893 90.92C401.874 90.5147 402.791 90.024 403.645 89.448C403.005 89.064 402.311 88.7333 401.565 88.456C400.818 88.1787 400.018 87.976 399.165 87.848C398.333 87.6987 397.447 87.624 396.509 87.624C396.167 87.624 395.805 87.6347 395.421 87.656C395.058 87.6773 394.685 87.72 394.301 87.784C393.917 87.8267 393.533 87.8907 393.149 87.976L392.509 83.592C393.127 83.4213 393.778 83.304 394.461 83.24C395.165 83.1547 395.783 83.112 396.317 83.112C397.469 83.112 398.525 83.24 399.485 83.496C400.466 83.752 401.362 84.072 402.173 84.456C403.005 84.84 403.773 85.224 404.477 85.608C405.202 85.992 405.885 86.312 406.525 86.568C407.186 86.824 407.826 86.952 408.444 86.952H409.628L410.141 91.208C409.223 91.2507 408.359 91.432 407.549 91.752C406.759 92.0507 405.97 92.4347 405.181 92.904C404.413 93.352 403.581 93.8213 402.685 94.312C401.81 94.8027 400.818 95.2613 399.709 95.688C398.599 96.1147 397.319 96.4667 395.869 96.744C394.418 97.0213 392.733 97.16 390.812 97.16ZM425.32 92.68C426.28 92.68 427.016 92.5947 427.528 92.424C428.04 92.2533 428.392 92.0293 428.584 91.752C428.776 91.4747 428.872 91.176 428.872 90.856C428.872 90.344 428.722 89.7467 428.424 89.064C428.146 88.3813 427.794 87.6667 427.368 86.92C426.941 86.1733 426.493 85.4587 426.024 84.776C425.576 84.0933 425.17 83.496 424.808 82.984L428.616 80.456C429.533 81.6933 430.322 82.92 430.984 84.136C431.645 85.3307 432.178 86.44 432.584 87.464C433.01 88.488 433.309 89.3627 433.48 90.088C433.65 90.7707 433.906 91.304 434.248 91.688C434.61 92.0507 435.026 92.3067 435.496 92.456C435.965 92.6053 436.434 92.68 436.904 92.68C437.714 92.68 438.29 92.8933 438.632 93.32C438.994 93.7253 439.176 94.2373 439.176 94.856C439.176 95.5173 438.952 96.072 438.504 96.52C438.077 96.9467 437.437 97.16 436.584 97.16C435.645 97.16 434.824 97.032 434.12 96.776C433.416 96.52 432.818 96.1147 432.328 95.56C431.837 95.0053 431.421 94.3013 431.08 93.448L433.032 93.864C432.861 94.4613 432.466 95.016 431.848 95.528C431.25 96.0187 430.45 96.424 429.448 96.744C428.466 97.0427 427.304 97.192 425.96 97.192C425.32 97.192 424.605 97.1387 423.816 97.032C423.048 96.9253 422.28 96.7653 421.512 96.552C420.765 96.3387 420.082 96.0613 419.464 95.72L421.032 91.656C421.821 91.9973 422.578 92.2533 423.304 92.424C424.05 92.5947 424.722 92.68 425.32 92.68ZM436.625 97.16L436.945 92.68C438.225 92.68 439.206 92.616 439.889 92.488C440.572 92.36 441.041 92.1253 441.297 91.784C441.574 91.4213 441.713 90.9093 441.713 90.248C441.713 89.6507 441.628 88.936 441.457 88.104C441.308 87.272 441.105 86.408 440.849 85.512C440.614 84.616 440.358 83.7947 440.081 83.048L444.497 81.832C444.774 82.5573 445.041 83.4 445.297 84.36C445.553 85.32 445.766 86.312 445.937 87.336C446.108 88.3387 446.193 89.3093 446.193 90.248C446.193 91.6987 445.958 92.8827 445.489 93.8C445.02 94.696 444.358 95.3893 443.505 95.88C442.673 96.3707 441.67 96.712 440.497 96.904C439.324 97.0747 438.033 97.16 436.625 97.16ZM444.529 104.584C443.91 104.584 443.377 104.36 442.929 103.912C442.502 103.485 442.289 102.973 442.289 102.376C442.289 101.757 442.502 101.224 442.929 100.776C443.377 100.328 443.91 100.104 444.529 100.104C445.126 100.104 445.638 100.328 446.065 100.776C446.492 101.224 446.705 101.757 446.705 102.376C446.705 102.973 446.492 103.485 446.065 103.912C445.638 104.36 445.126 104.584 444.529 104.584ZM438.993 104.584C438.374 104.584 437.841 104.36 437.393 103.912C436.966 103.485 436.753 102.973 436.753 102.376C436.753 101.757 436.966 101.224 437.393 100.776C437.841 100.328 438.374 100.104 438.993 100.104C439.59 100.104 440.102 100.328 440.529 100.776C440.956 101.224 441.169 101.757 441.169 102.376C441.169 102.973 440.956 103.485 440.529 103.912C440.102 104.36 439.59 104.584 438.993 104.584ZM448.637 104.392L447.005 100.424C448.136 100.04 449.17 99.592 450.109 99.08C451.069 98.568 451.901 98.0027 452.605 97.384C453.309 96.7653 453.853 96.0933 454.237 95.368C454.621 94.6213 454.813 93.8213 454.813 92.968C454.813 92.072 454.61 91.0907 454.205 90.024C453.8 88.9573 453.309 87.8693 452.733 86.76L456.925 84.744C457.309 85.4053 457.64 86.12 457.917 86.888C458.216 87.6347 458.461 88.3067 458.653 88.904C458.845 89.5013 458.973 89.9067 459.037 90.12C459.336 91.144 459.741 91.8267 460.253 92.168C460.786 92.5093 461.64 92.68 462.813 92.68C463.624 92.68 464.2 92.8933 464.541 93.32C464.904 93.7253 465.085 94.2373 465.085 94.856C465.085 95.5173 464.861 96.072 464.413 96.52C463.965 96.9467 463.325 97.16 462.493 97.16C461.618 97.16 460.85 97.032 460.189 96.776C459.528 96.52 458.994 96.1467 458.589 95.656C458.205 95.1653 457.96 94.5893 457.853 93.928L459.037 94.6C458.909 95.7307 458.536 96.7973 457.917 97.8C457.32 98.824 456.541 99.7627 455.581 100.616C454.621 101.469 453.544 102.216 452.349 102.856C451.154 103.496 449.917 104.008 448.637 104.392ZM462.531 97.16L462.851 92.68C464.003 92.68 465.145 92.616 466.275 92.488C467.406 92.36 468.505 92.168 469.571 91.912C470.638 91.656 471.651 91.3253 472.611 90.92C473.593 90.5147 474.51 90.024 475.363 89.448C474.723 89.064 474.03 88.7333 473.283 88.456C472.537 88.1787 471.737 87.976 470.883 87.848C470.051 87.6987 469.166 87.624 468.227 87.624C467.886 87.624 467.523 87.6347 467.139 87.656C466.777 87.6773 466.403 87.72 466.019 87.784C465.635 87.8267 465.251 87.8907 464.867 87.976L464.227 83.592C464.846 83.4213 465.497 83.304 466.179 83.24C466.883 83.1547 467.502 83.112 468.035 83.112C469.187 83.112 470.243 83.24 471.203 83.496C472.185 83.752 473.081 84.072 473.891 84.456C474.723 84.84 475.491 85.224 476.195 85.608C476.921 85.992 477.603 86.312 478.243 86.568C478.905 86.824 479.545 86.952 480.163 86.952H481.347L481.859 91.208C480.942 91.2507 480.078 91.432 479.267 91.752C478.478 92.0507 477.689 92.4347 476.899 92.904C476.131 93.352 475.299 93.8213 474.403 94.312C473.529 94.8027 472.537 95.2613 471.427 95.688C470.318 96.1147 469.038 96.4667 467.587 96.744C466.137 97.0213 464.451 97.16 462.531 97.16ZM468.067 80.136C467.406 80.136 466.841 79.912 466.371 79.464C465.923 79.016 465.699 78.4613 465.699 77.8C465.699 77.1387 465.923 76.5733 466.371 76.104C466.841 75.6347 467.406 75.4 468.067 75.4C468.707 75.4 469.251 75.6347 469.699 76.104C470.169 76.5733 470.403 77.1387 470.403 77.8C470.403 78.4613 470.169 79.016 469.699 79.464C469.251 79.912 468.707 80.136 468.067 80.136ZM495.055 97.128C494.457 97.128 493.924 97.0107 493.455 96.776C492.985 96.5413 492.623 96.2213 492.367 95.816C492.111 95.3893 491.983 94.9093 491.983 94.376C491.983 93.864 492.079 93.288 492.271 92.648C492.484 91.9867 492.751 91.3253 493.071 90.664C493.412 89.9813 493.753 89.352 494.095 88.776L497.135 90.216C496.921 90.6 496.719 91.016 496.527 91.464C496.335 91.8907 496.164 92.2747 496.015 92.616C495.887 92.936 495.812 93.16 495.791 93.288C496.345 93.4373 496.772 93.672 497.071 93.992C497.369 94.2907 497.519 94.6853 497.519 95.176C497.519 95.816 497.284 96.3067 496.815 96.648C496.367 96.968 495.78 97.128 495.055 97.128ZM507.382 92.68C508.342 92.68 509.078 92.5947 509.59 92.424C510.102 92.2533 510.454 92.0293 510.646 91.752C510.838 91.4747 510.934 91.176 510.934 90.856C510.934 90.344 510.785 89.7467 510.486 89.064C510.209 88.3813 509.857 87.6667 509.43 86.92C509.004 86.1733 508.556 85.4587 508.086 84.776C507.638 84.0933 507.233 83.496 506.87 82.984L510.678 80.456C511.596 81.6933 512.385 82.92 513.046 84.136C513.708 85.3307 514.241 86.44 514.646 87.464C515.073 88.488 515.372 89.3627 515.542 90.088C515.713 90.7707 515.969 91.304 516.31 91.688C516.673 92.0507 517.089 92.3067 517.558 92.456C518.028 92.6053 518.497 92.68 518.966 92.68C519.777 92.68 520.353 92.8933 520.694 93.32C521.057 93.7253 521.238 94.2373 521.238 94.856C521.238 95.5173 521.014 96.072 520.566 96.52C520.14 96.9467 519.5 97.16 518.646 97.16C517.708 97.16 516.886 97.032 516.182 96.776C515.478 96.52 514.881 96.1147 514.39 95.56C513.9 95.0053 513.484 94.3013 513.142 93.448L515.094 93.864C514.924 94.4613 514.529 95.016 513.91 95.528C513.313 96.0187 512.513 96.424 511.51 96.744C510.529 97.0427 509.366 97.192 508.022 97.192C507.382 97.192 506.668 97.1387 505.878 97.032C505.11 96.9253 504.342 96.7653 503.574 96.552C502.828 96.3387 502.145 96.0613 501.526 95.72L503.094 91.656C503.884 91.9973 504.641 92.2533 505.366 92.424C506.113 92.5947 506.785 92.68 507.382 92.68ZM518.688 97.16L519.008 92.68C519.818 92.68 520.458 92.6053 520.928 92.456C521.418 92.3067 521.802 92.008 522.08 91.56C522.378 91.0907 522.624 90.408 522.816 89.512C523.029 88.616 523.242 87.4213 523.456 85.928L527.648 86.632C527.605 86.952 527.541 87.3253 527.456 87.752C527.392 88.1787 527.328 88.616 527.264 89.064C527.221 89.4907 527.2 89.896 527.2 90.28C527.2 90.792 527.306 91.2293 527.52 91.592C527.754 91.9333 528.16 92.2 528.736 92.392C529.333 92.584 530.186 92.68 531.296 92.68C532.106 92.68 532.682 92.8933 533.024 93.32C533.365 93.7253 533.536 94.2373 533.536 94.856C533.536 95.5173 533.312 96.072 532.864 96.52C532.437 96.9467 531.808 97.16 530.976 97.16C529.504 97.16 528.309 97.0213 527.392 96.744C526.474 96.4667 525.792 95.9973 525.344 95.336C524.896 94.6747 524.608 93.768 524.48 92.616H526.016C525.632 93.64 525.184 94.4613 524.672 95.08C524.16 95.6773 523.584 96.1253 522.944 96.424C522.304 96.7227 521.621 96.9147 520.896 97C520.192 97.1067 519.456 97.16 518.688 97.16ZM525.216 82.664C524.554 82.664 523.989 82.44 523.52 81.992C523.072 81.544 522.848 80.9893 522.848 80.328C522.848 79.6667 523.072 79.1013 523.52 78.632C523.989 78.1627 524.554 77.928 525.216 77.928C525.856 77.928 526.4 78.1627 526.848 78.632C527.317 79.1013 527.552 79.6667 527.552 80.328C527.552 80.9893 527.317 81.544 526.848 81.992C526.4 82.44 525.856 82.664 525.216 82.664ZM530.969 97.16L531.289 92.68C531.822 92.68 532.227 92.5733 532.505 92.36C532.782 92.1467 533.059 91.7733 533.337 91.24C533.614 90.7067 533.998 89.9813 534.489 89.064C535.022 88.04 535.577 87.1867 536.153 86.504C536.729 85.8 537.305 85.2453 537.881 84.84C538.478 84.4133 539.065 84.1147 539.641 83.944C540.238 83.752 540.825 83.656 541.401 83.656C542.19 83.656 542.926 83.8267 543.609 84.168C544.313 84.488 544.985 85.0533 545.625 85.864C546.265 86.6533 546.873 87.7413 547.449 89.128C547.854 90.088 548.259 90.824 548.665 91.336C549.07 91.848 549.486 92.2 549.913 92.392C550.361 92.584 550.809 92.68 551.257 92.68C552.067 92.68 552.643 92.8933 552.985 93.32C553.326 93.7253 553.497 94.2373 553.497 94.856C553.497 95.5173 553.273 96.072 552.825 96.52C552.377 96.9467 551.747 97.16 550.937 97.16C549.891 97.16 548.942 96.9893 548.089 96.648C547.235 96.3067 546.563 95.7947 546.073 95.112L547.001 94.408C546.809 94.856 546.521 95.3253 546.137 95.816C545.774 96.3067 545.294 96.7227 544.697 97.064C544.121 97.4053 543.427 97.576 542.617 97.576C542.083 97.576 541.454 97.4693 540.729 97.256C540.025 97.064 539.289 96.7333 538.521 96.264C537.774 95.7733 537.081 95.112 536.441 94.28C536.035 95.0267 535.587 95.6133 535.097 96.04C534.606 96.4453 534.03 96.7333 533.369 96.904C532.707 97.0747 531.907 97.16 530.969 97.16ZM538.297 90.504C538.51 90.824 538.766 91.144 539.065 91.464C539.363 91.784 539.694 92.072 540.057 92.328C540.419 92.5627 540.803 92.7547 541.209 92.904C541.635 93.0533 542.051 93.128 542.457 93.128C542.883 93.128 543.235 92.968 543.513 92.648C543.79 92.3067 543.801 91.8053 543.545 91.144C543.438 90.8667 543.289 90.5573 543.097 90.216C542.926 89.8533 542.723 89.512 542.489 89.192C542.275 88.872 542.03 88.6053 541.753 88.392C541.497 88.1787 541.23 88.072 540.953 88.072C540.675 88.072 540.387 88.1573 540.089 88.328C539.79 88.4987 539.491 88.7653 539.193 89.128C538.894 89.4693 538.595 89.928 538.297 90.504ZM550.938 97.16L551.258 92.68C551.962 92.68 552.538 92.6267 552.986 92.52C553.434 92.392 553.796 92.1253 554.074 91.72C554.372 91.2933 554.628 90.664 554.842 89.832C555.076 88.9787 555.332 87.8267 555.61 86.376L559.77 87.144C559.706 87.464 559.631 87.8373 559.546 88.264C559.46 88.6907 559.386 89.128 559.322 89.576C559.258 90.0027 559.226 90.3867 559.226 90.728C559.226 91.3253 559.418 91.8053 559.802 92.168C560.186 92.5093 560.911 92.68 561.978 92.68C562.511 92.68 562.97 92.6267 563.354 92.52C563.759 92.392 564.1 92.1253 564.378 91.72C564.676 91.2933 564.932 90.6427 565.146 89.768C565.38 88.872 565.604 87.6667 565.818 86.152L570.042 86.824C569.956 87.3147 569.871 87.8373 569.786 88.392C569.7 88.9467 569.626 89.4587 569.562 89.928C569.498 90.3973 569.466 90.7813 569.466 91.08C569.466 91.3573 569.54 91.624 569.69 91.88C569.86 92.1147 570.159 92.3067 570.586 92.456C571.034 92.6053 571.663 92.68 572.474 92.68C573.05 92.68 573.54 92.6053 573.946 92.456C574.372 92.3067 574.692 92.0613 574.906 91.72C575.14 91.3787 575.258 90.9307 575.258 90.376C575.258 89.5867 575.076 88.552 574.714 87.272C574.351 85.992 573.924 84.648 573.434 83.24L577.946 81.896C578.287 82.8133 578.586 83.7947 578.842 84.84C579.119 85.864 579.332 86.8667 579.482 87.848C579.652 88.808 579.738 89.6507 579.738 90.376C579.738 91.464 579.567 92.4347 579.226 93.288C578.884 94.12 578.404 94.824 577.786 95.4C577.167 95.976 576.431 96.4133 575.578 96.712C574.724 97.0107 573.786 97.16 572.762 97.16C571.524 97.16 570.511 97.0427 569.722 96.808C568.932 96.552 568.324 96.136 567.898 95.56C567.492 94.9627 567.226 94.152 567.097 93.128H568.186C567.738 94.3867 567.236 95.304 566.682 95.88C566.127 96.4347 565.466 96.7867 564.698 96.936C563.951 97.0853 563.012 97.16 561.882 97.16C561.178 97.16 560.452 97.0853 559.706 96.936C558.98 96.7653 558.33 96.3813 557.754 95.784C557.178 95.1867 556.751 94.2587 556.474 93L558.202 92.936C557.754 94.1947 557.167 95.1227 556.442 95.72C555.738 96.3173 554.927 96.712 554.01 96.904C553.092 97.0747 552.068 97.16 550.938 97.16ZM567.674 77.352C567.14 77.352 566.671 77.1493 566.266 76.744C565.882 76.3387 565.69 75.8587 565.69 75.304C565.69 74.7493 565.882 74.28 566.266 73.896C566.671 73.512 567.14 73.32 567.674 73.32C568.228 73.32 568.698 73.512 569.082 73.896C569.466 74.28 569.658 74.7493 569.658 75.304C569.658 75.8587 569.466 76.3387 569.082 76.744C568.698 77.1493 568.228 77.352 567.674 77.352ZM565.114 81.576C564.58 81.576 564.111 81.3733 563.706 80.968C563.322 80.5627 563.13 80.0827 563.13 79.528C563.13 78.9733 563.322 78.504 563.706 78.12C564.111 77.736 564.58 77.544 565.114 77.544C565.668 77.544 566.138 77.736 566.522 78.12C566.906 78.504 567.097 78.9733 567.097 79.528C567.097 80.0827 566.906 80.5627 566.522 80.968C566.138 81.3733 565.668 81.576 565.114 81.576ZM570.074 81.576C569.54 81.576 569.071 81.3733 568.666 80.968C568.282 80.5627 568.09 80.0827 568.09 79.528C568.09 78.9733 568.282 78.504 568.666 78.12C569.071 77.736 569.54 77.544 570.074 77.544C570.628 77.544 571.098 77.736 571.482 78.12C571.866 78.504 572.058 78.9733 572.058 79.528C572.058 80.0827 571.866 80.5627 571.482 80.968C571.098 81.3733 570.628 81.576 570.074 81.576ZM583.168 104.36L582.24 99.88C583.754 99.688 585.077 99.4533 586.208 99.176C587.338 98.92 588.288 98.5573 589.056 98.088C589.824 97.6187 590.4 96.9787 590.784 96.168C591.168 95.336 591.36 94.2693 591.36 92.968C591.36 91.7093 591.168 90.7067 590.784 89.96C590.4 89.2133 589.888 88.84 589.248 88.84C588.8 88.84 588.426 89 588.128 89.32C587.829 89.6187 587.605 89.9813 587.456 90.408C587.328 90.8133 587.264 91.176 587.264 91.496C587.264 91.688 587.317 91.8907 587.424 92.104C587.53 92.3173 587.765 92.4987 588.128 92.648C588.49 92.7973 589.056 92.8827 589.824 92.904C590.613 92.9253 591.68 92.8507 593.024 92.68H598.4C599.21 92.68 599.786 92.8933 600.128 93.32C600.49 93.7253 600.672 94.2373 600.672 94.856C600.672 95.5173 600.448 96.072 600 96.52C599.552 96.9467 598.912 97.16 598.08 97.16H589.28C587.936 97.16 586.784 97 585.824 96.68C584.864 96.36 584.128 95.848 583.616 95.144C583.104 94.4187 582.848 93.4587 582.848 92.264C582.848 91.304 583.008 90.344 583.328 89.384C583.669 88.424 584.138 87.5493 584.736 86.76C585.333 85.9493 586.026 85.3093 586.816 84.84C587.626 84.3493 588.501 84.104 589.44 84.104C590.72 84.104 591.84 84.4987 592.8 85.288C593.76 86.0773 594.506 87.1227 595.04 88.424C595.594 89.7253 595.872 91.144 595.872 92.68C595.872 95.0907 595.36 97.1387 594.336 98.824C593.312 100.509 591.85 101.811 589.952 102.728C588.053 103.667 585.792 104.211 583.168 104.36ZM611.149 97.256C610.189 97.256 609.197 97.1387 608.173 96.904C607.17 96.6693 606.2 96.3173 605.261 95.848C604.322 95.3787 603.48 94.792 602.733 94.088C601.986 93.384 601.389 92.5733 600.941 91.656C600.514 90.7173 600.301 89.6613 600.301 88.488C600.301 87.528 600.504 86.6427 600.909 85.832C601.314 85.0213 601.912 84.3707 602.701 83.88C603.512 83.368 604.493 83.112 605.645 83.112C606.733 83.112 607.672 83.3787 608.461 83.912C609.272 84.424 609.901 85.096 610.349 85.928C610.797 86.7387 611.021 87.592 611.021 88.488C611.021 89.9173 610.669 91.176 609.965 92.264C609.261 93.3307 608.29 94.2267 607.053 94.952C605.837 95.6773 604.461 96.232 602.925 96.616C601.389 96.9787 599.789 97.16 598.125 97.16L598.445 92.68C599.661 92.68 600.717 92.648 601.613 92.584C602.53 92.52 603.32 92.3813 603.981 92.168C604.642 91.9547 605.218 91.6347 605.709 91.208C606.2 90.7813 606.573 90.312 606.829 89.8C607.106 89.2667 607.245 88.744 607.245 88.232C607.245 87.8907 607.192 87.5707 607.085 87.272C607 86.9733 606.85 86.728 606.637 86.536C606.445 86.3227 606.189 86.216 605.869 86.216C605.528 86.216 605.24 86.3227 605.005 86.536C604.792 86.728 604.621 86.984 604.493 87.304C604.386 87.624 604.333 87.9653 604.333 88.328C604.333 89.0747 604.525 89.7467 604.909 90.344C605.314 90.9413 605.848 91.4427 606.509 91.848C607.17 92.2533 607.896 92.5627 608.685 92.776C609.496 92.9893 610.317 93.096 611.149 93.096C611.81 93.096 612.28 92.9893 612.557 92.776C612.834 92.5627 612.973 92.2747 612.973 91.912C612.973 91.656 612.909 91.3893 612.781 91.112C612.674 90.8133 612.429 90.4507 612.045 90.024C611.661 89.5973 611.074 89.0747 610.285 88.456C609.496 87.816 608.44 87.0267 607.117 86.088C605.794 85.1493 604.13 84.008 602.125 82.664L604.589 79.176C606.85 80.776 608.738 82.1733 610.253 83.368C611.789 84.5627 613.026 85.608 613.965 86.504C614.904 87.4 615.618 88.1893 616.109 88.872C616.621 89.5333 616.962 90.1413 617.133 90.696C617.304 91.2507 617.389 91.8053 617.389 92.36C617.389 93.384 617.144 94.2587 616.653 94.984C616.162 95.7093 615.448 96.2747 614.509 96.68C613.592 97.064 612.472 97.256 611.149 97.256ZM639.631 97.672L640.463 93.192C642.533 93.192 644.335 93.1387 645.871 93.032C647.407 92.904 648.677 92.7227 649.679 92.488C650.703 92.232 651.461 91.9013 651.951 91.496C652.463 91.0907 652.719 90.6 652.719 90.024C652.719 89.256 652.591 88.3387 652.335 87.272C652.079 86.184 651.749 85.0853 651.343 83.976L655.535 82.76C655.813 83.4853 656.079 84.2853 656.335 85.16C656.591 86.0133 656.794 86.8773 656.943 87.752C657.114 88.6053 657.199 89.4053 657.199 90.152C657.199 91.4747 656.911 92.616 656.335 93.576C655.759 94.5147 654.799 95.2933 653.455 95.912C652.133 96.5093 650.341 96.9467 648.079 97.224C645.818 97.5227 643.002 97.672 639.631 97.672ZM639.599 97.672C637.295 97.672 635.343 97.4907 633.743 97.128C632.165 96.7867 630.874 96.296 629.871 95.656C628.89 94.9947 628.175 94.2267 627.727 93.352C627.279 92.4773 627.055 91.5173 627.055 90.472C627.055 89.7893 627.109 89.1067 627.215 88.424C627.343 87.72 627.493 87.0373 627.663 86.376C627.855 85.7147 628.026 85.1173 628.175 84.584L632.175 85.512C632.09 85.896 631.994 86.312 631.887 86.76C631.781 87.208 631.695 87.6453 631.631 88.072C631.567 88.4773 631.535 88.8507 631.535 89.192C631.535 89.9813 631.813 90.6853 632.367 91.304C632.943 91.9013 633.882 92.3707 635.183 92.712C636.485 93.032 638.234 93.192 640.431 93.192L641.071 96.648L639.599 97.672ZM642.063 105.16C641.445 105.16 640.911 104.947 640.463 104.52C640.037 104.093 639.823 103.571 639.823 102.952C639.823 102.333 640.037 101.789 640.463 101.32C640.911 100.872 641.445 100.648 642.063 100.648C642.682 100.648 643.205 100.872 643.631 101.32C644.079 101.789 644.303 102.333 644.303 102.952C644.303 103.571 644.079 104.093 643.631 104.52C643.205 104.947 642.682 105.16 642.063 105.16ZM668.957 97.16C666.973 97.16 665.437 96.9573 664.349 96.552C663.282 96.1467 662.535 95.5173 662.109 94.664C661.682 93.7893 661.437 92.6907 661.373 91.368L660.701 73.576H665.181L665.853 89.224C665.895 90.2053 666.002 90.9413 666.173 91.432C666.343 91.9227 666.663 92.2533 667.133 92.424C667.623 92.5947 668.338 92.68 669.277 92.68C670.087 92.68 670.663 92.8933 671.005 93.32C671.367 93.7253 671.549 94.2373 671.549 94.856C671.549 95.5173 671.325 96.072 670.877 96.52C670.429 96.9467 669.789 97.16 668.957 97.16ZM689.928 97.16C688.947 97.16 688.029 97.0853 687.176 96.936C686.344 96.7867 685.576 96.5307 684.872 96.168C684.168 95.784 683.539 95.2613 682.984 94.6C682.451 93.9387 682.003 93.1067 681.64 92.104L684.168 90.088C684.552 90.7707 685.021 91.304 685.576 91.688C686.131 92.0507 686.792 92.3067 687.56 92.456C688.328 92.6053 689.224 92.68 690.248 92.68C691.059 92.68 691.635 92.8933 691.976 93.32C692.317 93.7253 692.488 94.2373 692.488 94.856C692.488 95.5173 692.264 96.072 691.816 96.52C691.389 96.9467 690.76 97.16 689.928 97.16ZM669 97.16L669.32 92.68C670.472 92.68 671.613 92.616 672.744 92.488C673.875 92.36 674.973 92.168 676.04 91.912C677.107 91.656 678.12 91.3253 679.08 90.92C680.061 90.5147 680.979 90.024 681.832 89.448C681.192 89.064 680.499 88.7333 679.752 88.456C679.005 88.1787 678.205 87.976 677.352 87.848C676.52 87.6987 675.635 87.624 674.696 87.624C674.355 87.624 673.992 87.6347 673.608 87.656C673.245 87.6773 672.872 87.72 672.488 87.784C672.104 87.8267 671.72 87.8907 671.336 87.976L670.696 83.592C671.315 83.4213 671.965 83.304 672.648 83.24C673.352 83.1547 673.971 83.112 674.504 83.112C675.656 83.112 676.712 83.24 677.672 83.496C678.653 83.752 679.549 84.072 680.36 84.456C681.192 84.84 681.96 85.224 682.664 85.608C683.389 85.992 684.072 86.312 684.712 86.568C685.373 86.824 686.013 86.952 686.632 86.952H687.816L688.328 91.208C687.411 91.2507 686.547 91.432 685.736 91.752C684.947 92.0507 684.157 92.4347 683.368 92.904C682.6 93.352 681.768 93.8213 680.872 94.312C679.997 94.8027 679.005 95.2613 677.896 95.688C676.787 96.1147 675.507 96.4667 674.056 96.744C672.605 97.0213 670.92 97.16 669 97.16ZM674.504 79.816C673.843 79.816 673.277 79.592 672.808 79.144C672.36 78.696 672.136 78.1413 672.136 77.48C672.136 76.8187 672.36 76.2533 672.808 75.784C673.277 75.3147 673.843 75.08 674.504 75.08C675.144 75.08 675.688 75.3147 676.136 75.784C676.605 76.2533 676.84 76.8187 676.84 77.48C676.84 78.1413 676.605 78.696 676.136 79.144C675.688 79.592 675.144 79.816 674.504 79.816ZM689.938 97.16L690.258 92.68C691.026 92.68 691.687 92.6053 692.242 92.456C692.796 92.3067 693.266 92.008 693.65 91.56C694.034 91.0907 694.354 90.408 694.61 89.512C694.887 88.616 695.132 87.4213 695.346 85.928L699.538 86.632C699.495 86.952 699.431 87.3253 699.345 87.752C699.282 88.1787 699.218 88.616 699.154 89.064C699.111 89.4907 699.09 89.896 699.09 90.28C699.09 90.664 699.164 91.0053 699.314 91.304C699.463 91.6027 699.698 91.8587 700.018 92.072C700.359 92.264 700.796 92.4133 701.33 92.52C701.884 92.6267 702.556 92.68 703.346 92.68C704.156 92.68 704.732 92.8933 705.074 93.32C705.415 93.7253 705.586 94.2373 705.586 94.856C705.586 95.5173 705.362 96.072 704.914 96.52C704.487 96.9467 703.858 97.16 703.026 97.16C702.066 97.16 701.191 97.0853 700.402 96.936C699.634 96.7867 698.962 96.5413 698.385 96.2C697.831 95.8373 697.372 95.368 697.01 94.792C696.668 94.1947 696.455 93.4693 696.37 92.616H697.906C697.522 93.64 697.031 94.4613 696.434 95.08C695.858 95.6773 695.207 96.1253 694.482 96.424C693.756 96.7227 692.999 96.9147 692.21 97C691.442 97.1067 690.684 97.16 689.938 97.16ZM700.21 83.048C699.591 83.048 699.058 82.8347 698.61 82.408C698.183 81.96 697.97 81.4373 697.97 80.84C697.97 80.2213 698.183 79.688 698.61 79.24C699.058 78.792 699.591 78.568 700.21 78.568C700.807 78.568 701.319 78.792 701.746 79.24C702.172 79.688 702.386 80.2213 702.386 80.84C702.386 81.4373 702.172 81.96 701.746 82.408C701.319 82.8347 700.807 83.048 700.21 83.048ZM694.674 83.016C694.055 83.016 693.522 82.8027 693.074 82.376C692.647 81.928 692.434 81.4053 692.434 80.808C692.434 80.1893 692.647 79.656 693.074 79.208C693.522 78.76 694.055 78.536 694.674 78.536C695.271 78.536 695.783 78.76 696.21 79.208C696.636 79.656 696.85 80.1893 696.85 80.808C696.85 81.4053 696.636 81.928 696.21 82.376C695.783 82.8027 695.271 83.016 694.674 83.016ZM703.031 97.16L703.351 92.68C704.29 92.68 705.026 92.616 705.559 92.488C706.114 92.36 706.509 92.1253 706.743 91.784C706.978 91.4213 707.095 90.9093 707.095 90.248C707.095 89.6507 707.01 88.936 706.839 88.104C706.69 87.272 706.487 86.408 706.231 85.512C705.975 84.616 705.719 83.7947 705.463 83.048L709.879 81.832C710.135 82.5573 710.391 83.4 710.647 84.36C710.903 85.32 711.117 86.312 711.287 87.336C711.479 88.3387 711.575 89.3093 711.575 90.248C711.575 91.4213 711.426 92.4133 711.127 93.224C710.829 94.0133 710.413 94.6747 709.879 95.208C709.367 95.72 708.749 96.1253 708.023 96.424C707.319 96.7013 706.541 96.8933 705.687 97C704.834 97.1067 703.949 97.16 703.031 97.16ZM707.639 79.176C706.978 79.176 706.413 78.952 705.943 78.504C705.495 78.056 705.271 77.5013 705.271 76.84C705.271 76.1787 705.495 75.6133 705.943 75.144C706.413 74.6747 706.978 74.44 707.639 74.44C708.279 74.44 708.823 74.6747 709.271 75.144C709.741 75.6133 709.975 76.1787 709.975 76.84C709.975 77.5013 709.741 78.056 709.271 78.504C708.823 78.952 708.279 79.176 707.639 79.176ZM715.748 97L715.076 73.576H719.556L720.228 97H715.748Z" fill="white"/>
</svg>
